<svg width="40" height="70" viewBox="0 0 40 70" xmlns="http://www.w3.org/2000/svg">
  <!-- Body -->
  <rect x="5" y="5" width="30" height="60" rx="2" fill="#228b22" stroke="#006400" stroke-width="2"/>
  <!-- Turret -->
  <circle cx="20" cy="35" r="10" fill="#006400"/>
  <!-- Gun -->
  <rect x="18" y="10" width="4" height="25" fill="#004d00"/>
  <!-- Treads -->
  <rect x="0" y="5" width="6" height="60" fill="#333"/>
  <rect x="34" y="5" width="6" height="60" fill="#333"/>
  <!-- Tread Details -->
  <line x1="0" y1="15" x2="6" y2="15" stroke="#555" stroke-width="1"/>
  <line x1="0" y1="25" x2="6" y2="25" stroke="#555" stroke-width="1"/>
  <line x1="0" y1="35" x2="6" y2="35" stroke="#555" stroke-width="1"/>
  <line x1="0" y1="45" x2="6" y2="45" stroke="#555" stroke-width="1"/>
  <line x1="0" y1="55" x2="6" y2="55" stroke="#555" stroke-width="1"/>
  <line x1="34" y1="15" x2="40" y2="15" stroke="#555" stroke-width="1"/>
  <line x1="34" y1="25" x2="40" y2="25" stroke="#555" stroke-width="1"/>
  <line x1="34" y1="35" x2="40" y2="35" stroke="#555" stroke-width="1"/>
  <line x1="34" y1="45" x2="40" y2="45" stroke="#555" stroke-width="1"/>
  <line x1="34" y1="55" x2="40" y2="55" stroke="#555" stroke-width="1"/>
</svg>
